# xmcd
#
# Track frame offsets: 
#        150
#        18199
#        31863
#        41103
#        51383
#        59212
#        69465
#        75484
#        82897
#        92339
#        102343
#        109871
#        119308
#        125535
#
# Disc length: 1793 seconds
#
# Revision: 0
# Processed by: cddbd v1.5.2PL0 Copyright (c) Steve Scherf et al.
# Submitted via: ExactAudioCopy v0.99pb5
#
DISCID=b306ff0e
DTITLE=Buck Owens - Bakersfield Boy
DYEAR=2008
DGENRE=Country
TTITLE0=Country Girl Leaving Dirty Tracks
TTITLE1=Sweetheart In Heaven
TTITLE2=Why Don't Mommy Stay
TTITLE3=House Down The Block
TTITLE4=Please Don't Take Her From Me
TTITLE5=Hot Dog
TTITLE6=Three Dimension Love
TTITLE7=You're For Me
TTITLE8=It Don't Show On Me
TTITLE9=There Goes My Love
TTITLE10=Down On The Corner
TTITLE11=Rhythm Of Love
TTITLE12=Blue Love
TTITLE13=After The Dance
EXTD=
EXTT0=
EXTT1=
EXTT2=
EXTT3=
EXTT4=
EXTT5=
EXTT6=
EXTT7=
EXTT8=
EXTT9=
EXTT10=
EXTT11=
EXTT12=
EXTT13=
PLAYORDER=
